<svg xmlns="http://www.w3.org/2000/svg" viewBox="0 0 150 150">
  <defs>
    <style>
      .cls-1 {
        fill: #1b2e58;
      }
    </style>
  </defs>
  <g id="Group_2" data-name="Group 2" transform="translate(-100 -210.523)">
    <path id="Path_1" data-name="Path 1" class="cls-1" d="M100,211.109V358.883h76.53v-37.4H131.454V211.109Z" transform="translate(0 1.641)"/>
    <g id="Group_1" data-name="Group 1" transform="translate(173.469 210.523)">
      <path id="Subtraction_1" data-name="Subtraction 1" class="cls-1" d="M30.755,149.973H0V2.227l.091-.014A353.312,353.312,0,0,1,35.673,0C45.512,0,52.754.749,57.2,2.227,64.344,4.6,69.354,9.257,72.512,16.451c2.7,6.161,4.019,14.2,4.019,24.583a54.959,54.959,0,0,1-5.5,24.691c-3.5,6.8-8.414,11.542-13.831,13.344a45.374,45.374,0,0,1-14.134,1.924A78.115,78.115,0,0,1,30.755,80v69.971ZM47.813,17.408a57.049,57.049,0,0,0-14.656,2.249V60.14a56.89,56.89,0,0,0,14.657,2.25c4.294,0,7.769-.757,10.329-2.25,8.734-5.1,9.69-10.327,9.69-20.241s-.956-15.143-9.69-20.241C55.587,18.164,52.111,17.407,47.813,17.408Z" transform="translate(0 0)"/>
    </g>
  </g>
</svg>
