<?xml version="1.0" encoding="UTF-8"?>
<svg width="44px" height="34px" viewBox="0 0 44 34" version="1.1" xmlns="http://www.w3.org/2000/svg" xmlns:xlink="http://www.w3.org/1999/xlink">
    <!-- Generator: Sketch 41 (35326) - http://www.bohemiancoding.com/sketch -->
    <title>solopov</title>
    <desc>Created with Sketch.</desc>
    <defs></defs>
    <g id="Page-1" stroke="none" stroke-width="1" fill="none" fill-rule="evenodd">
        <g id="solopov" transform="translate(0.000000, -1.000000)" stroke="#FFFFFF" stroke-width="0.58">
            <path d="M5.09851074,15.3684692 C5.09851074,15.3684692 5.09851074,13.887207 4.78631592,13.3499756 C4.72233265,13.2398718 4.62803986,13.0359109 4.5032959,12.8585205 C4.37855193,12.6811301 4.1998465,12.5207951 4.00811768,12.4025269 C3.63638518,12.173223 2.77978516,12.1326294 2.77978516,12.1326294 C2.77978516,12.1326294 2.26317447,12.0761244 1.71838379,12.4025269 C1.17359311,12.7289293 1.07446877,12.9646974 0.93371582,13.1636963 C0.758482243,13.4114445 0.622497559,13.8128662 0.532409668,14.2313843 C0.442321777,14.6499023 0.450524404,15.4336104 0.604858398,15.9849854 C0.745239258,16.4865112 1.0769043,16.887207 1.33575439,17.1563721 C1.45123264,17.276452 1.71478916,17.5178694 2.06982422,17.6832886 C2.14035406,17.7161501 2.28910706,17.8047203 2.53497314,17.9135778 C2.78083923,18.0224352 3.54420185,18.3405942 3.74487305,18.4613037 C4.10081608,18.6754137 4.3796953,18.9746361 4.5032959,19.1195679 C4.69418195,19.3433974 4.87120279,19.6475476 4.96710205,19.9467163 C5.08402551,20.3114724 5.16283016,21.3315155 4.96710205,22.0013428 C4.87268361,22.3244647 4.5037284,23.0261549 4.00811768,23.3606567 C3.51250695,23.6951586 2.81308424,23.7002962 2.62512207,23.697998 C2.41308161,23.6954054 1.94721681,23.6664243 1.54760742,23.4332886 C1.14799803,23.2001528 0.999110294,22.9238177 0.817871094,22.6165161 C0.397748769,21.9041743 0.450012207,20.4956055 0.450012207,20.4956055" id="Path-6"></path>
            <path d="M6.78314209,14.0983276 C6.78314209,14.0983276 6.73260804,14.50354 6.71942139,15.0541382 C6.70623474,15.6047363 6.71942139,16.8205918 6.71942139,17.4542236 C6.71942139,17.9036352 6.72452309,18.5455975 6.71942139,19.2131958 C6.71431968,19.8807941 6.69754689,20.3087136 6.71942139,20.7940674 C6.76836789,21.8800978 6.82810417,21.8508419 6.85241699,21.9736328 C6.90783214,22.2535047 7.01955404,22.5465259 7.20794678,22.8251343 C7.39633951,23.1037427 7.51942838,23.213874 7.66870117,23.3347778 C7.8658487,23.4944579 8.02690197,23.5648818 8.24890137,23.6193237 C8.47090076,23.6737657 8.68287825,23.7080688 9.00976563,23.7080688 C9.51922855,23.7080688 9.7968925,23.6560444 10.0715332,23.5194702 C10.3461739,23.382896 10.3012184,23.4207696 10.4071045,23.3347778 C10.5750004,23.1984269 10.8327602,22.9245825 10.9815063,22.656189 C11.1302525,22.3877954 11.3130111,21.5892804 11.3287964,21 C11.3445817,20.4107196 11.3287964,18.4079025 11.3287964,17.4542236 C11.3287964,16.6916738 11.3521615,15.8180857 11.3287964,15.1407471 C11.3054312,14.4634084 11.2363892,14.0043581 11.2363892,14.0043581 C11.2363892,14.0043581 11.212077,13.7217171 11.0623169,13.3870239 C10.9125568,13.0523307 10.7019633,12.7837212 10.5357056,12.6341553 C10.3369452,12.4553499 10.1294018,12.3517828 9.85943604,12.2664185 C9.58947025,12.1810542 9.36397131,12.1258722 9.00976563,12.1351318 C8.23300179,12.155438 7.88107849,12.3297096 7.44915771,12.7148438 C7.01723694,13.0999779 6.78314209,14.0983276 6.78314209,14.0983276 Z" id="Path-7"></path>
            <polyline id="Path-8" points="13.0250826 0.997375488 13.0250826 23.7006689 17.3948364 23.7006689"></polyline>
            <path d="M18.5040894,14.166687 C18.5040894,14.166687 18.4536521,14.6404568 18.4403687,15.2841797 C18.4270852,15.9279026 18.4403687,17.3255797 18.4403687,18.0683594 C18.4403687,18.8076483 18.4403687,19.8566895 18.4403687,19.8566895 C18.4403687,19.8566895 18.4169953,20.682395 18.4403687,21 C18.494864,21.7404991 18.5785881,22.141227 18.7714233,22.5668335 C18.9642586,22.99244 19.1009579,23.081686 19.2300415,23.2023926 C19.5676361,23.5180787 19.969402,23.7120361 20.7393702,23.7120361 C21.5093384,23.7120361 21.770744,23.5713459 22.159729,23.2926025 C22.3269972,23.1727396 22.6685791,22.7892555 22.8186035,22.3258057 C22.968628,21.8623559 23.0499878,21 23.0499878,21 L23.0499878,17.9920044 L23.0499878,16.4102173 L23.0499878,15.7805786 C23.0499878,15.7805786 23.0499878,14.7717285 23.0026245,14.413269 C22.9552612,14.0548096 22.9069476,13.5904041 22.7011108,13.2200928 C22.4952741,12.8497814 22.3294596,12.7169693 22.159729,12.5732422 C21.7492282,12.2256319 21.2526245,12.1556396 20.7533569,12.1556396 C20.2540894,12.1556396 20.1902206,12.1261607 19.723877,12.3293457 C19.2575333,12.5325307 19.2443066,12.6552298 19.1066284,12.7775269 C18.6751799,13.1607749 18.5040894,14.166687 18.5040894,14.166687 Z" id="Path-9"></path>
            <path d="M24.8701286,34.8440566 L24.8798128,17.8579321 L24.8830789,12.1778015 C24.8830789,12.1778015 26.8004761,12.1127441 27.2352905,12.1778015 C27.670105,12.2428589 27.9527588,12.2905884 28.2869263,12.5076904 C28.6210938,12.7247925 28.7908428,12.9371484 28.9051514,13.1173706 C29.0404535,13.3306919 29.3101196,14.1013184 29.3101196,15.003479 C29.3101196,15.5920648 29.2495236,16.3465826 28.9051514,16.9240112 C28.5607791,17.5014399 28.3430176,17.5338135 28.0429077,17.6958008 C27.2302233,18.1344553 24.8830789,17.8579321 24.8830789,17.8579321" id="Path-10"></path>
            <path d="M30.9899902,15.092553 C30.9899902,15.092553 30.993299,15.7001047 30.9899902,16.0038805 L30.9899902,17.6853638 L30.9899902,20.0742798 L31,21.5736084 C31,21.5736084 31.0571831,22.072275 31.2712402,22.5254517 C31.4852973,22.9786283 31.7714823,23.2362713 31.9522705,23.3672485 C32.0135533,23.4116466 32.4682007,23.7149048 33.0469971,23.7149048 C33.6257935,23.7149048 33.7246288,23.7171879 34.0877075,23.6091309 C34.4507862,23.5010738 34.5713745,23.3918265 34.7163696,23.2731934 C34.8627071,23.1534619 35.0893869,22.8804736 35.2269287,22.6329346 C35.3644705,22.3853956 35.4995393,21.6560059 35.4995393,21.6560059 C35.4995393,21.6560059 35.5611582,20.9424503 35.5698242,20.4144287 C35.5784903,19.8864072 35.5698242,17.6853638 35.5698242,17.6853638 C35.5698242,17.6853638 35.5847034,16.1572536 35.5698242,15.3934937 C35.5549451,14.6297337 35.4995393,14.0775757 35.4995393,14.0775757 C35.4995393,14.0775757 35.3655646,13.2476154 34.8739624,12.7476196 C34.3823602,12.2476238 33.6522079,12.1424561 33.2803291,12.1424561 C32.4713327,12.1424561 32.1803848,12.3120721 31.742981,12.6565552 C31.5138283,12.8370273 31.2080304,13.3632831 31.0736084,13.9508057 C30.9514473,14.4847394 30.9899902,15.092553 30.9899902,15.092553 Z" id="Path-11"></path>
            <polyline id="Path-12" points="37.1998251 11.9054109 40.1553498 23.804264 43.1391355 11.8658454"></polyline>
        </g>
    </g>
</svg>